<svg xmlns="http://www.w3.org/2000/svg" width="40" height="40" viewBox="0 0 40 40">
  <defs>
    <linearGradient id="accent" x1="6" y1="8" x2="34" y2="32" gradientUnits="userSpaceOnUse">
      <stop offset="0" stop-color="#20d6ff"/>
      <stop offset="0.55" stop-color="#8b5cf6"/>
      <stop offset="1" stop-color="#ff4fa3"/>
    </linearGradient>
    <linearGradient id="tie" x1="10" y1="16" x2="30" y2="26" gradientUnits="userSpaceOnUse">
      <stop offset="0" stop-color="#23d8ff"/>
      <stop offset="1" stop-color="#d946ef"/>
    </linearGradient>
  </defs>
  <path fill="url(#accent)" fill-rule="evenodd" d="M20 4a16 16 0 1 0 16 16h-4a12 12 0 1 1-3.5-8.5l-2.7 2.7A8.2 8.2 0 1 0 28.2 20H32A12 12 0 0 1 20 32a12 12 0 1 1 0-24c3.3 0 6.3 1.3 8.5 3.5L31.2 8A16 16 0 0 0 20 4Z"/>
  <path fill="#111827" d="M13 10h14v12H13z"/>
  <path fill="#111827" d="M16 6h2v4h-2zm6 0h2v4h-2zM9 13h4v2H9zm0 5h4v2H9zm18-5h4v2h-4zm0 5h4v2h-4z"/>
  <path fill="url(#tie)" d="M20 24 9 18v12l11-6Zm0 0 11-6v12l-11-6Z"/>
  <circle cx="20" cy="24" r="3.2" fill="#111827"/>
</svg>
